G04 EAGLE Gerber RS-274X export*
G75*
%MOMM*%
%FSLAX34Y34*%
%LPD*%
%INBottom Copper*%
%IPPOS*%
%AMOC8*
5,1,8,0,0,1.08239X$1,22.5*%
G01*
%ADD10R,12.065000X3.810000*%
%ADD11R,6.350000X13.970000*%
%ADD12R,8.255000X19.685000*%
%ADD13R,2.540000X16.510000*%
%ADD14R,3.810000X7.620000*%
%ADD15R,6.350000X3.810000*%
%ADD16R,4.445000X8.255000*%
%ADD17R,7.620000X7.620000*%
%ADD18R,3.175000X6.985000*%
%ADD19R,3.810000X3.810000*%
%ADD20R,1.905000X5.715000*%
%ADD21R,2.540000X15.875000*%
%ADD22R,6.350000X5.715000*%
%ADD23R,3.810000X12.065000*%
%ADD24R,5.080000X9.525000*%
%ADD25R,3.175000X7.620000*%
%ADD26R,3.175000X2.540000*%
%ADD27C,1.320800*%
%ADD28P,1.649562X8X22.500000*%
%ADD29C,1.117600*%
%ADD30C,1.508000*%
%ADD31C,0.076200*%
%ADD32C,1.650000*%
%ADD33R,1.650000X1.650000*%
%ADD34C,0.660400*%
%ADD35R,1.638300X1.638300*%


D10*
X504825Y520700D03*
D11*
X565150Y438150D03*
D12*
X555625Y269875D03*
D13*
X508000Y273050D03*
D14*
X577850Y139700D03*
D15*
X514350Y101600D03*
D16*
X123825Y288925D03*
D17*
X177800Y298450D03*
D18*
X212725Y307975D03*
D19*
X190500Y349250D03*
D20*
X168275Y339725D03*
D21*
X438150Y339725D03*
D22*
X381000Y288925D03*
D23*
X107950Y396875D03*
D24*
X114300Y377825D03*
D25*
X149225Y381000D03*
D26*
X174625Y381000D03*
D27*
X298196Y254000D02*
X311404Y254000D01*
X311404Y228600D02*
X298196Y228600D01*
X298196Y152400D02*
X311404Y152400D01*
X311404Y127000D02*
X298196Y127000D01*
X298196Y203200D02*
X311404Y203200D01*
X311404Y177800D02*
X298196Y177800D01*
X298196Y101600D02*
X311404Y101600D01*
X374396Y101600D02*
X387604Y101600D01*
X387604Y127000D02*
X374396Y127000D01*
X374396Y152400D02*
X387604Y152400D01*
X387604Y177800D02*
X374396Y177800D01*
X374396Y203200D02*
X387604Y203200D01*
X387604Y228600D02*
X374396Y228600D01*
X374396Y254000D02*
X387604Y254000D01*
X215900Y184404D02*
X215900Y171196D01*
X190500Y171196D02*
X190500Y184404D01*
X114300Y184404D02*
X114300Y171196D01*
X88900Y171196D02*
X88900Y184404D01*
X165100Y184404D02*
X165100Y171196D01*
X139700Y171196D02*
X139700Y184404D01*
X63500Y184404D02*
X63500Y171196D01*
X38100Y171196D02*
X38100Y184404D01*
X38100Y108204D02*
X38100Y94996D01*
X63500Y94996D02*
X63500Y108204D01*
X88900Y108204D02*
X88900Y94996D01*
X114300Y94996D02*
X114300Y108204D01*
X139700Y108204D02*
X139700Y94996D01*
X165100Y94996D02*
X165100Y108204D01*
X190500Y108204D02*
X190500Y94996D01*
X215900Y94996D02*
X215900Y108204D01*
D28*
X520700Y38100D03*
X546100Y38100D03*
X571500Y38100D03*
X596900Y38100D03*
X520700Y63500D03*
X546100Y63500D03*
X571500Y63500D03*
X596900Y63500D03*
D29*
X259588Y330200D02*
X248412Y330200D01*
X248412Y279400D02*
X259588Y279400D01*
D30*
X450850Y431800D03*
X476250Y431800D03*
X450850Y406400D03*
X476250Y406400D03*
X450850Y381000D03*
X476250Y381000D03*
X450850Y355600D03*
X476250Y355600D03*
X450850Y330200D03*
X476250Y330200D03*
X450850Y304800D03*
X476250Y304800D03*
X450850Y279400D03*
X476250Y279400D03*
X450850Y254000D03*
X476250Y254000D03*
D31*
X622300Y558800D02*
X0Y558800D01*
X622300Y558800D02*
X622300Y0D01*
X0Y0D01*
X0Y558800D01*
D32*
X393700Y520700D03*
X368300Y520700D03*
X342900Y520700D03*
X317500Y520700D03*
D33*
X215900Y520700D03*
D32*
X63500Y520700D03*
D34*
X114300Y520700D02*
X171450Y463550D01*
X469900Y463550D01*
X495300Y438150D01*
X495300Y425450D01*
X476250Y406400D01*
D32*
X114300Y520700D03*
D34*
X165100Y520700D02*
X196850Y488950D01*
X482600Y488950D01*
X520700Y450850D01*
X520700Y400050D01*
X476250Y355600D01*
D33*
X165100Y520700D03*
D32*
X434340Y38100D03*
X408940Y38100D03*
X383540Y38100D03*
D34*
X307340Y38100D02*
X307340Y48260D01*
X279400Y76200D01*
X279400Y133350D01*
X247650Y165100D01*
X222250Y165100D01*
X215900Y171450D01*
X215900Y177800D01*
D32*
X307340Y38100D03*
D34*
X281940Y38100D02*
X281940Y48260D01*
X266700Y63500D01*
X165100Y165100D02*
X165100Y177800D01*
X165100Y165100D02*
X177800Y152400D01*
X241300Y152400D01*
X266700Y127000D01*
X266700Y63500D01*
D32*
X281940Y38100D03*
D34*
X165100Y38100D02*
X165100Y101600D01*
D32*
X165100Y38100D03*
D34*
X63500Y38100D02*
X63500Y101600D01*
D32*
X63500Y38100D03*
D34*
X88900Y38100D02*
X88900Y101600D01*
D32*
X88900Y38100D03*
D34*
X114300Y38100D02*
X114300Y101600D01*
D32*
X114300Y38100D03*
D34*
X139700Y38100D02*
X139700Y101600D01*
D32*
X139700Y38100D03*
D34*
X38100Y38100D02*
X38100Y101600D01*
D33*
X38100Y38100D03*
D32*
X38100Y520700D03*
D34*
X190500Y101600D02*
X190500Y38100D01*
D32*
X190500Y38100D03*
X459740Y38100D03*
X485140Y38100D03*
D34*
X114300Y165100D02*
X114300Y177800D01*
X114300Y165100D02*
X152400Y127000D01*
X228600Y127000D01*
X241300Y114300D01*
X241300Y63500D01*
X215900Y38100D01*
D32*
X215900Y38100D03*
X358140Y38100D03*
D34*
X476250Y431800D02*
X457200Y450850D01*
X158750Y450850D01*
X88900Y520700D01*
D32*
X88900Y520700D03*
D34*
X476250Y381000D02*
X508000Y412750D01*
X508000Y444500D01*
X476250Y476250D01*
X184150Y476250D02*
X139700Y520700D01*
X184150Y476250D02*
X476250Y476250D01*
D32*
X139700Y520700D03*
D34*
X63500Y228600D02*
X63500Y177800D01*
X63500Y228600D02*
X38100Y254000D01*
X38100Y323850D01*
X69850Y355600D01*
D33*
X69850Y355600D03*
D34*
X69850Y304800D02*
X88900Y285750D01*
X88900Y177800D01*
D33*
X69850Y304800D03*
D34*
X256540Y46990D02*
X256540Y38100D01*
X256540Y46990D02*
X254000Y49530D01*
X254000Y120650D01*
X234950Y139700D01*
X165100Y139700D01*
X139700Y165100D01*
X139700Y177800D01*
D33*
X256540Y38100D03*
D34*
X190500Y190500D02*
X203200Y203200D01*
X190500Y190500D02*
X190500Y177800D01*
X241300Y203200D02*
X254000Y203200D01*
X241300Y203200D02*
X203200Y203200D01*
X266700Y203200D02*
X304800Y203200D01*
X266700Y203200D02*
X254000Y203200D01*
X254000Y215900D01*
X254000Y279400D01*
X254000Y215900D02*
X241300Y203200D01*
X254000Y215900D02*
X266700Y203200D01*
X304800Y228600D02*
X304800Y254000D01*
X304800Y279400D01*
X260350Y323850D01*
X254000Y330200D01*
X304800Y285750D02*
X304800Y254000D01*
X304800Y298450D02*
X304800Y311150D01*
X292100Y323850D02*
X285750Y330200D01*
X254000Y330200D01*
X260350Y323850D02*
X266700Y323850D01*
X292100Y323850D01*
X304800Y311150D01*
X298450Y311150D01*
X292100Y317500D01*
X285750Y317500D01*
X273050Y317500D01*
X266700Y323850D01*
X273050Y317500D02*
X279400Y311150D01*
X304800Y285750D01*
X304800Y292100D01*
X304800Y298450D01*
X285750Y317500D01*
X279400Y311150D01*
X285750Y311150D01*
X298450Y298450D01*
X298450Y311150D01*
X298450Y298450D02*
X304800Y292100D01*
X304800Y101600D02*
X317500Y101600D01*
X330200Y114300D01*
X50800Y425450D02*
X44450Y425450D01*
X38100Y431800D01*
X31750Y438150D01*
X31750Y444500D01*
X50800Y425450D01*
X50800Y431800D01*
X31750Y450850D01*
X31750Y444500D01*
X31750Y438150D02*
X31750Y425450D01*
X38100Y431800D01*
X38100Y425450D02*
X44450Y425450D01*
X44450Y419100D02*
X50800Y425450D01*
X44450Y419100D02*
X31750Y419100D01*
X38100Y425450D01*
X31750Y425450D02*
X31750Y419100D01*
X31750Y406400D01*
X31750Y450850D02*
X31750Y457200D01*
X31750Y463550D01*
X31750Y469900D01*
X57150Y444500D01*
X50800Y438150D02*
X31750Y457200D01*
X57150Y444500D02*
X57150Y438150D01*
X31750Y463550D01*
X50800Y438150D02*
X57150Y438150D01*
X38100Y412750D02*
X31750Y406400D01*
X38100Y412750D02*
X31750Y419100D01*
X31750Y406400D02*
X31750Y400050D01*
X44450Y412750D01*
X38100Y412750D01*
X57150Y431800D02*
X57150Y438150D01*
X57150Y431800D02*
X50800Y438150D01*
X31750Y469900D02*
X25400Y476250D01*
X25400Y482600D02*
X31750Y482600D01*
X44450Y412750D02*
X44450Y406400D01*
X31750Y400050D02*
X25400Y393700D01*
X25400Y476250D01*
X25400Y393700D02*
X25400Y387350D01*
X44450Y406400D01*
X19050Y476250D02*
X25400Y482600D01*
X50800Y412750D02*
X44450Y406400D01*
X31750Y476250D02*
X25400Y476250D01*
X57150Y431800D02*
X57150Y425450D01*
X50800Y419100D02*
X44450Y412750D01*
X50800Y419100D02*
X57150Y425450D01*
X57150Y419100D02*
X50800Y419100D01*
X57150Y419100D02*
X57150Y425450D01*
X63500Y444500D02*
X31750Y476250D01*
X50800Y412750D02*
X57150Y412750D01*
X19050Y381000D02*
X19050Y476250D01*
X25400Y387350D02*
X19050Y381000D01*
X19050Y374650D01*
X57150Y412750D01*
X63500Y412750D02*
X63500Y444500D01*
X57150Y419100D02*
X63500Y412750D01*
X69850Y431800D02*
X63500Y438150D01*
X69850Y406400D02*
X25400Y361950D01*
X69850Y406400D02*
X69850Y412750D01*
X69850Y431800D01*
X69850Y412750D02*
X63500Y412750D01*
X19050Y368300D01*
X19050Y374650D01*
X19050Y368300D02*
X19050Y361950D01*
X69850Y412750D01*
X25400Y196850D02*
X31750Y190500D01*
X25400Y241300D02*
X25400Y361950D01*
X25400Y241300D02*
X25400Y196850D01*
X31750Y234950D02*
X25400Y241300D01*
X31750Y234950D02*
X31750Y190500D01*
X19050Y247650D02*
X19050Y361950D01*
X19050Y247650D02*
X25400Y241300D01*
X19050Y247650D02*
X19050Y196850D01*
X38100Y228600D02*
X31750Y234950D01*
X38100Y228600D02*
X38100Y177800D01*
X19050Y196850D01*
X69850Y444500D02*
X31750Y482600D01*
X69850Y444500D02*
X69850Y431800D01*
X330200Y330200D02*
X330200Y114300D01*
D33*
X69850Y406400D03*
X330200Y431800D03*
X330200Y330200D03*
D34*
X393700Y152400D02*
X406400Y139700D01*
X412750Y133350D01*
X476250Y69850D01*
X482600Y63500D01*
X393700Y152400D02*
X381000Y152400D01*
X482600Y63500D02*
X520700Y63500D01*
X406400Y88900D02*
X406400Y139700D01*
X406400Y88900D02*
X431800Y63500D01*
X482600Y63500D01*
X412750Y127000D02*
X412750Y133350D01*
X412750Y127000D02*
X412750Y88900D01*
X431800Y69850D01*
X469900Y69850D01*
X476250Y69850D01*
X469900Y69850D02*
X463550Y76200D01*
X419100Y120650D01*
X412750Y127000D01*
X419100Y120650D02*
X419100Y114300D01*
X419100Y88900D01*
X431800Y76200D01*
X457200Y76200D01*
X463550Y76200D01*
X457200Y76200D02*
X450850Y82550D01*
X425450Y107950D01*
X419100Y114300D01*
X425450Y107950D02*
X425450Y101600D01*
X425450Y88900D01*
X431800Y82550D01*
X438150Y82550D01*
X444500Y82550D01*
X450850Y82550D01*
X444500Y82550D02*
X431800Y95250D01*
X431800Y88900D01*
X438150Y82550D01*
X438150Y88900D01*
X425450Y101600D01*
X332740Y48260D02*
X332740Y38100D01*
X351790Y19050D01*
X501650Y19050D02*
X520700Y38100D01*
X501650Y19050D02*
X351790Y19050D01*
X332740Y48260D02*
X381000Y96520D01*
X381000Y101600D02*
X381000Y127000D01*
X381000Y101600D02*
X381000Y96520D01*
D32*
X332740Y38100D03*
D34*
X266700Y520700D02*
X241300Y520700D01*
X266700Y520700D02*
X285750Y501650D01*
X444500Y501650D02*
X488950Y501650D01*
X444500Y501650D02*
X406400Y501650D01*
X400050Y501650D01*
X285750Y501650D01*
X488950Y501650D02*
X495300Y501650D01*
X488950Y501650D02*
X533400Y457200D01*
X533400Y393700D01*
X450850Y381000D02*
X450850Y406400D01*
X450850Y381000D02*
X450850Y355600D01*
X495300Y355600D02*
X533400Y393700D01*
X495300Y241300D02*
X495300Y234950D01*
X495300Y247650D02*
X495300Y355600D01*
X450850Y355600D02*
X450850Y330200D01*
X450850Y304800D01*
X482600Y234950D02*
X488950Y234950D01*
X495300Y234950D01*
X450850Y279400D02*
X450850Y304800D01*
X450850Y260350D02*
X450850Y254000D01*
X450850Y260350D02*
X450850Y279400D01*
X450850Y254000D02*
X469900Y234950D01*
X400050Y501650D02*
X438150Y539750D01*
X444500Y539750D01*
X565150Y539750D01*
X596900Y508000D01*
X596900Y95250D01*
X596900Y82550D02*
X596900Y69850D01*
X596900Y63500D01*
X406400Y501650D02*
X438150Y533400D01*
X444500Y539750D01*
X444500Y501650D01*
X438150Y508000D01*
X438150Y520700D01*
X438150Y527050D02*
X438150Y533400D01*
X438150Y527050D02*
X425450Y514350D01*
X419100Y508000D01*
X438150Y508000D01*
X431800Y514350D01*
X425450Y514350D01*
X438150Y520700D02*
X438150Y527050D01*
X438150Y520700D02*
X431800Y514350D01*
X533400Y463550D02*
X539750Y463550D01*
X533400Y463550D02*
X495300Y501650D01*
X501650Y501650D01*
X527050Y501650D02*
X533400Y501650D01*
X533400Y469900D01*
X527050Y476250D01*
X508000Y495300D01*
X501650Y501650D01*
X514350Y501650D01*
X520700Y501650D02*
X527050Y501650D01*
X527050Y495300D01*
X527050Y482600D02*
X527050Y476250D01*
X527050Y482600D02*
X527050Y495300D01*
X520700Y501650D01*
X514350Y501650D01*
X508000Y495300D01*
X514350Y495300D01*
X520700Y495300D01*
X520700Y488950D01*
X514350Y495300D01*
X520700Y488950D02*
X527050Y482600D01*
X558800Y101600D02*
X596900Y63500D01*
X558800Y101600D02*
X558800Y127000D01*
X514350Y171450D01*
X501650Y355600D02*
X495300Y355600D01*
X508000Y355600D02*
X520700Y355600D01*
X533400Y355600D01*
X533400Y361950D01*
X533400Y368300D01*
X533400Y381000D02*
X533400Y387350D01*
X501650Y355600D01*
X508000Y355600D01*
X514350Y361950D01*
X527050Y374650D02*
X533400Y381000D01*
X533400Y368300D01*
X520700Y355600D01*
X514350Y361950D01*
X527050Y374650D01*
X527050Y368300D01*
X520700Y361950D01*
X533400Y361950D01*
X590550Y76200D02*
X596900Y69850D01*
X590550Y76200D02*
X565150Y101600D01*
X571500Y101600D01*
X584200Y101600D02*
X590550Y101600D01*
X596900Y95250D01*
X596900Y88900D01*
X596900Y82550D02*
X590550Y76200D01*
X590550Y82550D01*
X571500Y101600D01*
X577850Y101600D01*
X584200Y101600D01*
X596900Y88900D01*
X596900Y82550D01*
X577850Y101600D01*
X558800Y127000D02*
X558800Y133350D01*
X558800Y139700D02*
X558800Y146050D01*
X558800Y152400D02*
X558800Y158750D01*
X558800Y165100D02*
X558800Y171450D01*
X552450Y171450D01*
X546100Y171450D01*
X539750Y171450D02*
X533400Y171450D01*
X527050Y171450D02*
X520700Y171450D01*
X558800Y133350D01*
X558800Y139700D01*
X527050Y171450D01*
X533400Y171450D01*
X558800Y146050D01*
X558800Y152400D01*
X539750Y171450D01*
X546100Y171450D01*
X558800Y158750D01*
X558800Y165100D01*
X552450Y171450D01*
X514350Y171450D02*
X514350Y177800D01*
X508000Y184150D01*
X501650Y190500D01*
X514350Y190500D01*
X520700Y184150D01*
X508000Y184150D01*
X501650Y190500D02*
X444500Y247650D01*
X450850Y247650D01*
X495300Y203200D01*
X495300Y209550D01*
X469900Y234950D01*
X476250Y234950D01*
X482600Y228600D01*
X488950Y222250D02*
X495300Y215900D01*
X495300Y222250D01*
X495300Y228600D01*
X488950Y234950D01*
X482600Y228600D01*
X488950Y222250D02*
X495300Y222250D01*
X488950Y222250D02*
X482600Y228600D01*
X488950Y228600D01*
X495300Y222250D01*
X482600Y234950D02*
X476250Y234950D01*
X482600Y234950D02*
X495300Y247650D01*
X495300Y241300D01*
X488950Y234950D01*
X438150Y247650D02*
X514350Y171450D01*
X438150Y247650D02*
X431800Y254000D01*
X425450Y260350D01*
X425450Y330200D01*
X425450Y336550D02*
X336550Y419100D01*
X425450Y260350D02*
X438150Y260350D01*
X450850Y260350D01*
X438150Y260350D02*
X431800Y254000D01*
X450850Y254000D01*
X444500Y254000D01*
X438150Y247650D01*
X330200Y431800D02*
X336550Y438150D01*
X444500Y438150D01*
X450850Y431800D01*
X450850Y425450D01*
X450850Y406400D01*
X425450Y336550D02*
X425450Y330200D01*
X336550Y419100D01*
X330200Y425450D01*
X330200Y431800D01*
X444500Y431800D01*
X450850Y425450D01*
X444500Y419100D01*
X444500Y425450D01*
X419100Y425450D01*
X406400Y425450D01*
X387350Y425450D02*
X381000Y425450D01*
X374650Y425450D02*
X368300Y425450D01*
X361950Y425450D01*
X355600Y425450D02*
X349250Y425450D01*
X342900Y425450D02*
X336550Y425450D01*
X330200Y425450D01*
X336550Y425450D02*
X425450Y336550D01*
X425450Y342900D01*
X342900Y425450D01*
X349250Y425450D01*
X425450Y349250D01*
X425450Y355600D01*
X355600Y425450D01*
X361950Y425450D01*
X365760Y421640D01*
X425450Y361950D01*
X425450Y368300D01*
X368300Y425450D01*
X425450Y374650D02*
X425450Y368300D01*
X425450Y374650D02*
X374650Y425450D01*
X381000Y425450D01*
X425450Y381000D01*
X425450Y387350D01*
X387350Y425450D01*
X393700Y425450D01*
X400050Y425450D01*
X431800Y393700D01*
X425450Y393700D01*
X393700Y425450D01*
X400050Y425450D02*
X406400Y425450D01*
X412750Y419100D01*
X419100Y412750D02*
X425450Y406400D01*
X425450Y419100D01*
X419100Y425450D01*
X412750Y419100D01*
X419100Y412750D01*
X425450Y419100D01*
X419100Y419100D01*
X425450Y419100D02*
X438150Y419100D01*
D32*
X241300Y520700D03*
X266700Y520700D03*
D35*
X365760Y421640D03*
D34*
X38100Y139700D02*
X38100Y127000D01*
X44450Y127000D01*
X114300Y127000D01*
X120650Y127000D02*
X127000Y127000D01*
X101600Y152400D01*
X50800Y152400D01*
X44450Y158750D01*
X38100Y165100D01*
X38100Y152400D01*
X50800Y152400D01*
X44450Y146050D01*
X38100Y139700D01*
X38100Y146050D02*
X38100Y152400D01*
X44450Y158750D01*
X44450Y152400D01*
X38100Y146050D01*
X38100Y139700D01*
X44450Y133350D01*
X44450Y127000D01*
X44450Y133350D02*
X44450Y139700D01*
X50800Y139700D01*
X57150Y146050D01*
X44450Y146050D01*
X57150Y146050D02*
X101600Y146050D01*
X114300Y133350D01*
X120650Y127000D01*
X114300Y127000D01*
X101600Y139700D01*
X50800Y139700D01*
X44450Y133350D01*
X114300Y133350D01*
X292100Y520700D02*
X273050Y539750D01*
X31750Y539750D01*
X19050Y527050D01*
X19050Y514350D01*
X31750Y501650D01*
X38100Y501650D01*
X82550Y501650D01*
X152400Y431800D01*
X158750Y425450D02*
X203200Y381000D01*
X101600Y304800D02*
X101600Y298450D01*
X101600Y247650D01*
X101600Y241300D02*
X101600Y234950D01*
X107950Y228600D01*
X114300Y222250D01*
X127000Y222250D01*
X133350Y228600D01*
X146050Y241300D01*
X146050Y247650D01*
X158750Y260350D01*
X161290Y262890D01*
X218440Y262890D01*
X228600Y273050D01*
X63500Y330200D02*
X50800Y317500D01*
X50800Y273050D01*
X69850Y254000D01*
X63500Y330200D02*
X82550Y330200D01*
X88900Y330200D01*
X95250Y330200D02*
X99060Y330200D01*
X157480Y388620D01*
X191770Y388620D01*
X101600Y311150D02*
X82550Y330200D01*
X228600Y336550D02*
X228600Y342900D01*
X203200Y368300D01*
X196850Y368300D02*
X171450Y368300D01*
X196850Y368300D02*
X203200Y368300D01*
X171450Y368300D02*
X127000Y323850D01*
X171450Y368300D02*
X191770Y388620D01*
X127000Y323850D02*
X107950Y304800D01*
X101600Y304800D01*
X101600Y317500D01*
X88900Y330200D01*
X95250Y330200D01*
X101600Y323850D01*
X107950Y317500D01*
X114300Y323850D02*
X101600Y323850D01*
X114300Y323850D02*
X120650Y323850D01*
X127000Y323850D01*
X120650Y323850D02*
X107950Y311150D01*
X101600Y317500D01*
X107950Y317500D01*
X114300Y323850D01*
X114300Y317500D01*
X101600Y304800D01*
X101600Y298450D02*
X107950Y304800D01*
X107950Y228600D02*
X133350Y228600D01*
X133350Y234950D01*
X139700Y241300D02*
X146050Y247650D01*
X133350Y247650D01*
X127000Y247650D01*
X120650Y247650D01*
X114300Y247650D01*
X107950Y247650D01*
X101600Y247650D02*
X101600Y241300D01*
X107950Y234950D01*
X120650Y234950D01*
X127000Y234950D02*
X133350Y234950D01*
X139700Y241300D01*
X133350Y247650D01*
X133350Y241300D01*
X127000Y247650D01*
X127000Y241300D01*
X120650Y247650D01*
X120650Y241300D01*
X114300Y247650D01*
X114300Y241300D01*
X107950Y241300D01*
X101600Y247650D01*
X107950Y247650D01*
X120650Y234950D01*
X127000Y234950D01*
X133350Y241300D01*
X120650Y241300D01*
X139700Y260350D02*
X152400Y260350D01*
X158750Y260350D01*
X152400Y260350D02*
X146050Y254000D01*
X203200Y374650D02*
X203200Y381000D01*
X203200Y374650D02*
X203200Y368300D01*
X63500Y469900D02*
X31750Y501650D01*
X63500Y469900D02*
X69850Y469900D01*
X76200Y469900D02*
X82550Y469900D01*
X88900Y463550D01*
X127000Y425450D01*
X88900Y457200D02*
X88900Y463550D01*
X88900Y457200D02*
X88900Y444500D01*
X88900Y336550D01*
X82550Y330200D01*
X44450Y495300D02*
X38100Y501650D01*
X44450Y495300D02*
X63500Y476250D01*
X82550Y476250D01*
X82550Y482600D01*
X82550Y488950D02*
X82550Y495300D01*
X76200Y495300D01*
X63500Y495300D01*
X57150Y488950D02*
X50800Y495300D01*
X57150Y488950D02*
X63500Y482600D01*
X76200Y482600D01*
X76200Y488950D02*
X76200Y495300D01*
X50800Y495300D02*
X44450Y495300D01*
X50800Y495300D02*
X63500Y495300D01*
X69850Y488950D01*
X57150Y488950D01*
X69850Y488950D02*
X76200Y488950D01*
X76200Y482600D01*
X82550Y495300D02*
X139700Y438150D01*
X203200Y374650D01*
X196850Y374650D01*
X82550Y488950D01*
X82550Y482600D01*
X196850Y368300D01*
X171450Y387350D02*
X76200Y482600D01*
X228600Y336550D02*
X228600Y273050D01*
X228600Y336550D02*
X234950Y342900D01*
X88900Y444500D02*
X63500Y469900D01*
X69850Y469900D02*
X95250Y444500D01*
X76200Y469900D02*
X69850Y469900D01*
X76200Y469900D02*
X88900Y457200D01*
X412750Y254000D02*
X419100Y247650D01*
X425450Y241300D01*
X546100Y120650D01*
X215900Y101600D02*
X215900Y69850D01*
X317500Y69850D02*
X349250Y101600D01*
X349250Y234950D01*
X368300Y254000D01*
X381000Y266700D02*
X393700Y279400D01*
X381000Y260350D02*
X381000Y254000D01*
X381000Y260350D02*
X381000Y266700D01*
X381000Y254000D02*
X393700Y254000D01*
X400050Y247650D01*
X406400Y165100D02*
X406400Y158750D01*
X406400Y165100D02*
X406400Y171450D01*
X406400Y241300D01*
X406400Y158750D02*
X482600Y82550D01*
X577850Y19050D02*
X596900Y38100D01*
X577850Y19050D02*
X565150Y19050D01*
X546100Y38100D02*
X546100Y63500D01*
X546100Y38100D02*
X565150Y19050D01*
X520700Y82550D02*
X482600Y82550D01*
X539750Y69850D02*
X546100Y63500D01*
X539750Y69850D02*
X533400Y76200D01*
X527050Y82550D01*
X381000Y254000D02*
X368300Y254000D01*
X520700Y82550D02*
X527050Y82550D01*
X520700Y82550D02*
X438150Y165100D01*
X438150Y177800D01*
X438150Y190500D02*
X438150Y196850D01*
X546100Y120650D02*
X546100Y82550D01*
X546100Y76200D01*
X546100Y63500D01*
X539750Y82550D02*
X527050Y82550D01*
X539750Y82550D02*
X546100Y82550D01*
X539750Y82550D02*
X533400Y76200D01*
X546100Y76200D01*
X539750Y69850D01*
X482600Y82550D02*
X482600Y88900D01*
X406400Y165100D01*
X412750Y165100D01*
X482600Y95250D01*
X482600Y101600D01*
X419100Y165100D01*
X425450Y165100D01*
X482600Y107950D01*
X482600Y114300D01*
X431800Y165100D01*
X444500Y165100D01*
X488950Y120650D01*
X488950Y127000D01*
X450850Y165100D01*
X488950Y127000D02*
X495300Y120650D01*
X539750Y120650D01*
X533400Y127000D01*
X457200Y203200D01*
X419100Y241300D01*
X457200Y203200D02*
X457200Y196850D01*
X457200Y190500D01*
X457200Y184150D02*
X457200Y177800D01*
X501650Y127000D02*
X508000Y127000D01*
X514350Y127000D02*
X520700Y127000D01*
X527050Y127000D02*
X533400Y127000D01*
X527050Y127000D02*
X457200Y196850D01*
X520700Y127000D02*
X527050Y127000D01*
X520700Y127000D02*
X457200Y190500D01*
X457200Y184150D02*
X514350Y127000D01*
X508000Y127000D01*
X457200Y177800D01*
X457200Y171450D01*
X457200Y165100D01*
X495300Y127000D01*
X501650Y127000D01*
X457200Y171450D01*
X457200Y165100D02*
X412750Y165100D01*
X406400Y171450D01*
X412750Y171450D01*
X425450Y171450D01*
X444500Y171450D02*
X450850Y171450D01*
X457200Y171450D01*
X457200Y184150D02*
X457200Y190500D01*
X457200Y196850D02*
X412750Y241300D01*
X412750Y234950D01*
X412750Y171450D01*
X419100Y177800D01*
X419100Y184150D01*
X419100Y190500D01*
X419100Y203200D02*
X419100Y209550D01*
X419100Y215900D01*
X419100Y222250D02*
X419100Y228600D01*
X412750Y234950D01*
X419100Y228600D02*
X450850Y196850D01*
X450850Y190500D01*
X450850Y171450D01*
X450850Y190500D02*
X419100Y222250D01*
X419100Y215900D01*
X431800Y203200D01*
X438150Y196850D01*
X431800Y203200D02*
X425450Y203200D01*
X419100Y209550D01*
X425450Y209550D01*
X444500Y190500D01*
X444500Y171450D01*
X425450Y171450D01*
X419100Y177800D01*
X425450Y177800D01*
X431800Y177800D02*
X438150Y177800D01*
X438150Y190500D01*
X431800Y196850D01*
X425450Y196850D01*
X419100Y203200D01*
X419100Y190500D01*
X425450Y184150D01*
X425450Y196850D01*
X431800Y190500D01*
X431800Y177800D01*
X425450Y177800D01*
X419100Y184150D01*
X425450Y184150D01*
X431800Y177800D01*
X349250Y234950D02*
X349250Y241300D01*
X349250Y247650D01*
X349250Y323850D01*
X349250Y342900D01*
X412750Y260350D02*
X412750Y254000D01*
X412750Y260350D02*
X412750Y266700D01*
X412750Y273050D01*
X412750Y279400D02*
X412750Y285750D01*
X412750Y292100D02*
X412750Y323850D01*
X323850Y412750D01*
X406400Y241300D02*
X425450Y241300D01*
X406400Y241300D02*
X400050Y247650D01*
X412750Y247650D01*
X419100Y247650D01*
X412750Y247650D02*
X406400Y254000D01*
X393700Y254000D01*
X406400Y254000D02*
X412750Y260350D01*
X406400Y260350D01*
X381000Y260350D01*
X406400Y260350D02*
X412750Y266700D01*
X406400Y266700D01*
X400050Y266700D02*
X387350Y266700D01*
X393700Y273050D01*
X412750Y292100D01*
X412750Y285750D01*
X400050Y273050D01*
X406400Y273050D01*
X412750Y279400D01*
X412750Y273050D01*
X406400Y266700D01*
X400050Y266700D01*
X393700Y273050D01*
X387350Y266700D02*
X381000Y260350D01*
X368300Y260350D02*
X349250Y241300D01*
X368300Y260350D02*
X381000Y260350D01*
X368300Y260350D02*
X361950Y260350D01*
X355600Y260350D01*
X355600Y254000D01*
X349250Y247650D01*
X355600Y254000D02*
X361950Y260350D01*
X254000Y438150D02*
X139700Y438150D01*
X254000Y438150D02*
X349250Y342900D01*
X323850Y412750D02*
X317500Y412750D01*
X292100Y438150D01*
X254000Y438150D01*
X279400Y431800D02*
X158750Y431800D01*
X285750Y431800D02*
X292100Y431800D01*
X298450Y431800D01*
X406400Y323850D01*
X406400Y317500D01*
X292100Y431800D01*
X292100Y425450D01*
X393700Y323850D01*
X400050Y317500D01*
X355600Y317500D01*
X349250Y323850D01*
X387350Y323850D01*
X393700Y323850D01*
X387350Y323850D02*
X381000Y330200D01*
X374650Y336550D02*
X368300Y342900D01*
X279400Y431800D01*
X285750Y431800D01*
X292100Y425450D01*
X279400Y425450D01*
X273050Y425450D02*
X158750Y425450D01*
X152400Y431800D01*
X158750Y431800D01*
X171450Y419100D01*
X184150Y406400D01*
X209550Y381000D01*
X209550Y374650D01*
X209550Y368300D01*
X234950Y342900D01*
X241300Y349250D01*
X285750Y349250D01*
X298450Y349250D02*
X304800Y349250D01*
X311150Y349250D02*
X317500Y349250D01*
X323850Y349250D02*
X330200Y349250D01*
X336550Y349250D02*
X342900Y349250D01*
X355600Y336550D01*
X361950Y336550D02*
X374650Y336550D01*
X381000Y330200D01*
X355600Y330200D01*
X355600Y336550D01*
X355600Y342900D01*
X355600Y349250D01*
X361950Y342900D01*
X361950Y336550D02*
X355600Y336550D01*
X361950Y336550D02*
X368300Y342900D01*
X355600Y342900D01*
X355600Y330200D02*
X355600Y317500D01*
X355600Y342900D02*
X273050Y425450D01*
X279400Y425450D01*
X355600Y349250D01*
X177800Y419100D02*
X171450Y419100D01*
X254000Y419100D02*
X266700Y419100D01*
X336550Y349250D01*
X330200Y349250D01*
X266700Y412750D01*
X254000Y412750D01*
X190500Y412750D02*
X184150Y412750D01*
X177800Y419100D01*
X254000Y419100D01*
X323850Y349250D01*
X317500Y349250D01*
X254000Y412750D01*
X190500Y412750D01*
X184150Y406400D01*
X190500Y406400D01*
X234950Y406400D02*
X247650Y406400D01*
X254000Y406400D01*
X304800Y355600D01*
X311150Y349250D01*
X304800Y349250D01*
X247650Y406400D01*
X247650Y400050D01*
X292100Y355600D01*
X285750Y355600D01*
X241300Y400050D01*
X241300Y393700D01*
X285750Y349250D01*
X298450Y349250D01*
X304800Y355600D01*
X292100Y355600D01*
X285750Y355600D02*
X273050Y355600D01*
X241300Y355600D01*
X234950Y349250D01*
X209550Y374650D01*
X209550Y387350D02*
X196850Y400050D01*
X190500Y406400D01*
X234950Y406400D01*
X241300Y400050D01*
X228600Y400050D01*
X203200Y400050D02*
X196850Y400050D01*
X222250Y400050D02*
X228600Y400050D01*
X266700Y361950D01*
X260350Y361950D01*
X254000Y361950D02*
X241300Y361950D01*
X234950Y355600D01*
X209550Y387350D02*
X209550Y393700D01*
X203200Y400050D02*
X222250Y400050D01*
X260350Y361950D01*
X254000Y361950D01*
X247650Y368300D01*
X222250Y393700D01*
X215900Y393700D01*
X209550Y393700D01*
X203200Y400050D01*
X209550Y393700D02*
X215900Y387350D01*
X241300Y361950D02*
X247650Y368300D01*
X241300Y368300D01*
X215900Y393700D01*
X222250Y393700D02*
X234950Y393700D01*
X247650Y406400D01*
X247650Y400050D02*
X247650Y381000D01*
X273050Y355600D01*
X241300Y355600D02*
X234950Y355600D01*
X209550Y381000D01*
X209550Y387350D01*
X215900Y387350D01*
X241300Y361950D01*
X241300Y355600D01*
X209550Y387350D01*
D32*
X292100Y520700D03*
D33*
X69850Y254000D03*
X317500Y69850D03*
X215900Y69850D03*
D34*
X558800Y533400D02*
X565150Y533400D01*
X590550Y508000D01*
X584200Y508000D01*
X577850Y508000D02*
X571500Y508000D01*
X565150Y508000D01*
X565150Y514350D01*
X565150Y520700D02*
X565150Y527050D01*
X584200Y508000D01*
X577850Y508000D01*
X565150Y520700D01*
X565150Y514350D01*
X571500Y508000D01*
X381000Y95250D02*
X412750Y63500D01*
X406400Y63500D01*
X400050Y63500D02*
X393700Y63500D01*
X387350Y63500D02*
X374650Y63500D01*
X368300Y63500D01*
X361950Y63500D02*
X355600Y63500D01*
X349250Y63500D01*
X355600Y63500D02*
X381000Y88900D01*
X406400Y63500D01*
X400050Y63500D01*
X381000Y82550D01*
X361950Y63500D01*
X368300Y63500D01*
X381000Y76200D01*
X393700Y63500D01*
X387350Y63500D01*
X381000Y69850D01*
X374650Y63500D01*
X133350Y323850D02*
X158750Y349250D01*
X158750Y342900D01*
X158750Y336550D01*
X152400Y336550D01*
X158750Y342900D01*
X209550Y355600D02*
X222250Y342900D01*
X215900Y342900D01*
X209550Y342900D01*
X209550Y349250D01*
X215900Y342900D01*
X222250Y279400D02*
X222250Y273050D01*
X215900Y266700D01*
X215900Y273050D02*
X222250Y273050D01*
D35*
X35560Y449580D03*
M02*
