M48
;GenerationSoftware,Autodesk,EAGLE,9.2.2*%
;CreationDate,2018-12-12T09:13:53Z*%
FMAT,2
ICI,OFF
METRIC,TZ,000.000
T7C0.610
T6C0.813
T5C1.000
T4C1.016
T3C1.092
T2C1.100
%
G90
M71
T2
X33020Y43180
X45974Y3810
X48514Y3810
X21590Y3810
X35814Y3810
X8890Y52070
X13970Y52070
X6985Y35560
X6985Y30480
X25654Y3810
X6985Y40640
X36830Y52070
X33020Y33020
X33274Y3810
X24130Y52070
X26670Y52070
X29210Y52070
X6985Y25400
X31750Y6985
X21590Y6985
X39370Y52070
X3810Y52070
X19050Y3810
X34290Y52070
X31750Y52070
X21590Y52070
X6350Y52070
X11430Y52070
X16510Y52070
X43434Y3810
X40894Y3810
X30734Y3810
X3810Y3810
X13970Y3810
X11430Y3810
X8890Y3810
X6350Y3810
X16510Y3810
X28194Y3810
X38354Y3810
T3
X36576Y42164
X3556Y44958
T4
X52070Y3810
X54610Y3810
X57150Y3810
X59690Y3810
X52070Y6350
X54610Y6350
X57150Y6350
X59690Y6350
T5
X47625Y35560
X45085Y35560
X47625Y38100
X45085Y38100
X47625Y40640
X45085Y40640
X47625Y43180
X45085Y43180
X45085Y33020
X47625Y33020
X45085Y30480
X47625Y30480
X45085Y27940
X47625Y27940
X45085Y25400
X47625Y25400
T6
X19050Y17780
X30480Y25400
X30480Y22860
X30480Y15240
X30480Y12700
X30480Y20320
X30480Y17780
X30480Y10160
X38100Y10160
X38100Y12700
X38100Y15240
X38100Y17780
X38100Y20320
X38100Y22860
X38100Y25400
X21590Y17780
X8890Y10160
X11430Y17780
X8890Y17780
X16510Y17780
X13970Y17780
X6350Y17780
X3810Y17780
X3810Y10160
X6350Y10160
X21590Y10160
X19050Y10160
X16510Y10160
X13970Y10160
X11430Y10160
T7
X25400Y27940
X25400Y33020
M30